<?xml version="1.0" standalone="no"?>
<!DOCTYPE svg PUBLIC "-//W3C//DTD SVG 20010904//EN"
 "http://www.w3.org/TR/2001/REC-SVG-20010904/DTD/svg10.dtd">
<svg version="1.0" xmlns="http://www.w3.org/2000/svg"
 width="408.000000pt" height="408.000000pt" viewBox="0 0 408.000000 408.000000"
 preserveAspectRatio="xMidYMid meet">
<metadata>
Created by potrace 1.14, written by Peter Selinger 2001-2017
</metadata>
<g transform="translate(0.000000,408.000000) scale(0.100000,-0.100000)"
fill="#000000" stroke="none">
<path d="M1015 4072 c-25 -2 -85 -13 -200 -36 -75 -15 -237 -87 -366 -162
l-66 -39 13 -35 c16 -44 17 -60 4 -60 -6 0 -29 -12 -53 -27 -23 -15 -43 -28
-45 -29 -2 -1 4 -19 13 -40 38 -91 61 -221 68 -383 2 -33 3 -34 79 -55 245
-71 371 -309 275 -520 -24 -52 -24 -53 -5 -78 27 -38 54 -125 57 -183 2 -58
-29 -170 -60 -209 -21 -26 -21 -27 -2 -59 50 -85 57 -226 12 -273 -31 -33
-104 -78 -161 -99 -43 -16 -46 -19 -36 -39 6 -11 20 -31 31 -44 20 -22 20 -22
1 -36 -10 -8 -43 -22 -72 -32 -28 -10 -52 -21 -52 -25 0 -15 61 -88 97 -117
106 -83 222 -115 423 -116 147 0 215 15 313 69 56 32 144 110 177 158 l24 34
78 -62 c150 -119 373 -214 472 -202 69 9 164 36 240 69 83 37 220 123 256 161
14 15 28 27 33 27 4 0 41 -33 81 -74 133 -133 240 -179 416 -180 144 -1 200 7
304 43 143 50 258 158 309 289 9 23 27 59 40 80 71 113 84 198 80 507 -5 404
-4 1093 2 1190 6 108 19 173 51 268 13 39 24 74 24 78 0 6 -21 19 -145 89
-105 59 -297 123 -440 146 -79 12 -350 11 -440 -2 -321 -48 -535 -205 -684
-501 -23 -46 -43 -83 -45 -83 -3 0 -23 36 -45 80 -58 116 -107 186 -186 266
-113 114 -238 184 -395 219 -54 12 -70 16 -100 21 -38 7 -326 12 -375 6z m468
-1091 c87 -54 160 -230 183 -441 3 -30 9 -82 13 -115 23 -209 -20 -505 -86
-592 -14 -18 -29 -30 -34 -27 -19 11 -80 134 -108 219 -31 93 -75 296 -87 400
-3 33 -8 68 -10 77 -9 50 -18 220 -19 346 0 113 3 145 14 152 24 14 96 5 134
-19z m1280 17 c38 -20 60 -56 78 -128 9 -36 13 -286 4 -328 -2 -12 -6 -49 -9
-81 -7 -77 -13 -115 -37 -236 -11 -55 -22 -111 -25 -125 -22 -115 -99 -299
-125 -300 -9 0 -65 107 -88 170 -33 92 -43 136 -60 275 -8 70 -7 342 2 380 3
11 8 43 11 70 12 89 48 209 74 244 26 35 91 70 130 71 13 0 33 -5 45 -12z
m-1230 -1288 c-21 -33 -41 -60 -45 -60 -23 0 -13 28 29 80 59 73 69 61 16 -20z
m1091 4 c-22 -32 -44 -59 -50 -61 -6 -2 -16 9 -23 24 -10 22 -10 28 3 35 9 5
33 24 53 43 54 50 63 28 17 -41z"/>
<path d="M243 1445 c-28 -28 -34 -41 -32 -67 3 -31 54 -118 70 -118 11 0 20
-31 25 -85 13 -155 16 -177 50 -364 22 -118 79 -331 103 -386 5 -11 26 -63 46
-115 41 -106 134 -300 144 -300 4 0 47 55 95 122 49 68 119 164 156 213 36 50
108 147 159 218 51 70 95 127 97 127 2 0 50 -13 106 -29 90 -26 131 -35 238
-56 14 -3 45 -8 70 -11 25 -3 56 -8 70 -11 60 -12 469 -11 570 2 145 19 275
42 360 65 25 7 56 14 70 17 14 2 76 21 138 42 l113 37 253 -345 c139 -190 259
-356 267 -368 20 -33 31 -28 56 25 153 325 195 446 253 712 39 186 45 222 55
384 7 102 10 111 37 139 34 36 43 65 34 111 -8 44 -36 67 -88 73 -37 4 -49 0
-83 -26 -22 -16 -86 -65 -143 -109 -521 -397 -1182 -603 -1787 -557 -44 3 -91
8 -105 10 -14 2 -45 7 -70 10 -25 3 -52 8 -60 10 -8 2 -31 7 -50 10 -72 12
-282 77 -329 101 -14 8 -30 14 -34 14 -5 0 -58 25 -119 56 -197 99 -342 206
-510 376 -102 103 -110 108 -149 108 -34 0 -47 -6 -76 -35z m3492 -287 c-13
-146 -18 -185 -41 -303 -9 -44 -18 -91 -20 -105 -7 -42 -64 -241 -89 -310 -41
-116 -145 -350 -156 -350 -3 0 -36 42 -72 92 -95 132 -276 380 -290 398 -33
40 -127 173 -127 179 0 4 26 18 58 31 218 90 502 254 662 384 75 61 81 60 75
-16z m-3305 -47 c162 -148 447 -317 663 -394 16 -6 14 -13 -20 -61 -42 -61
-340 -468 -389 -533 l-31 -41 -43 91 c-82 175 -178 457 -205 602 -12 61 -25
141 -30 175 -3 19 -7 44 -10 55 -2 11 -7 56 -10 100 l-7 80 28 -26 c16 -14 40
-36 54 -48z"/>
</g>
</svg>
